# xmcd
# 
# Track frame offsets:
#     150
#     30551
#     42475
#     56122
#     84905
#     95410
#     107397
#     124044
#     139245
#     158555
#     171184
#     187750
#     208911
#     227860
#     255522
#     271152
#     286529
#     296892
# 
# Disc length: 4234
# 
# Revision: 0
# Processed by: cddbd v1.5.2PL0 Copyright (c) Steve Scherf et al.
# Submitted via: BonkEnc v1.0.15
# 
DISCID=f6108812
DTITLE=Bob Dylan - The Album
DYEAR=0
DGENRE=Blues
TTITLE0=A Hard Rain´s Gonna Fall
TTITLE1=Blowin' in the Wind
TTITLE2=Baby Let Me Follow You Down
TTITLE3=Long John
TTITLE4=Cocaine
TTITLE5=V D Gunner's Blues
TTITLE6=See That My Grave is Kept Clean
TTITLE7=Ramblin' Around
TTITLE8=Black Cross
TTITLE9=My Own True Love
TTITLE10=Bob Dylan's Dream
TTITLE11=Boots of Spanish Leather
TTITLE12=Gospel Plow
TTITLE13=1913 Massacre
TTITLE14=Fixin' To Die
TTITLE15=Talkin' in New York
TTITLE16=Man On The Street
TTITLE17=John Brown
EXTD=
EXTT0=
EXTT1=
EXTT2=
EXTT3=
EXTT4=
EXTT5=
EXTT6=
EXTT7=
EXTT8=
EXTT9=
EXTT10=
EXTT11=
EXTT12=
EXTT13=
EXTT14=
EXTT15=
EXTT16=
EXTT17=
PLAYORDER=
